<?xml version="1.0" standalone="no"?>
<!DOCTYPE svg PUBLIC "-//W3C//DTD SVG 20010904//EN"
 "http://www.w3.org/TR/2001/REC-SVG-20010904/DTD/svg10.dtd">
<svg version="1.0" xmlns="http://www.w3.org/2000/svg"
 width="179.000000pt" height="145.000000pt" viewBox="0 0 179.000000 145.000000"
 preserveAspectRatio="xMidYMid meet">

<g transform="translate(0.000000,145.000000) scale(0.100000,-0.100000)"
fill="#000000" stroke="none">
<path d="M802 1319 c-129 -25 -249 -122 -292 -235 -27 -74 -29 -205 -4 -275
39 -107 168 -223 276 -250 28 -6 84 -9 126 -7 130 8 237 79 303 200 33 61 34
66 34 178 0 106 -2 120 -28 172 -54 110 -154 188 -273 213 -76 16 -81 16 -142
4z m180 -89 c62 -23 133 -91 169 -160 19 -37 24 -61 24 -130 0 -75 -4 -92 -30
-143 -61 -121 -168 -183 -298 -175 -84 6 -133 28 -194 88 -77 74 -108 168 -91
276 11 72 36 119 89 173 42 42 53 48 129 77 52 20 141 17 202 -6z"/>
<path d="M794 1080 c-84 -42 -112 -161 -54 -231 79 -97 218 -92 270 10 36 71
23 136 -37 193 -54 51 -113 61 -179 28z m121 -66 c25 -10 48 -62 40 -93 -26
-103 -175 -91 -175 14 0 64 68 104 135 79z"/>
<path d="M380 925 l0 -265 25 0 25 0 0 265 0 265 -25 0 -25 0 0 -265z"/>
<path d="M1304 920 l1 -260 25 0 c24 0 25 2 26 68 1 37 -1 154 -3 260 -5 189
-5 192 -27 192 l-22 0 0 -260z"/>
<path d="M270 915 l0 -165 25 0 25 0 0 165 0 165 -25 0 -25 0 0 -165z"/>
<path d="M1410 915 l0 -165 25 0 25 0 0 165 0 165 -25 0 -25 0 0 -165z"/>
<path d="M170 915 c0 -52 1 -55 25 -55 24 0 25 3 25 55 0 52 -1 55 -25 55 -24
0 -25 -3 -25 -55z"/>
<path d="M1510 915 c0 -52 1 -55 25 -55 24 0 25 3 25 55 0 52 -1 55 -25 55
-24 0 -25 -3 -25 -55z"/>
<path d="M850 301 c0 -125 7 -158 31 -134 5 5 10 65 12 134 2 122 2 124 -20
127 -23 3 -23 2 -23 -127z"/>
<path d="M1044 397 c-3 -8 -3 -56 -2 -108 3 -80 6 -94 21 -97 15 -3 17 7 17
107 0 93 -2 111 -15 111 -9 0 -18 -6 -21 -13z"/>
<path d="M667 384 c-4 -4 -7 -44 -7 -89 0 -61 4 -86 15 -95 22 -18 26 2 23
100 -3 76 -12 102 -31 84z"/>
<path d="M765 337 c-3 -7 -5 -47 -3 -88 2 -58 6 -74 18 -74 12 0 15 16 15 84
0 59 -4 86 -12 88 -7 3 -15 -2 -18 -10z"/>
<path d="M950 265 c0 -77 2 -86 18 -83 14 3 17 15 17 83 0 68 -3 80 -17 83
-16 3 -18 -6 -18 -83z"/>
<path d="M564 275 c-8 -21 3 -48 19 -43 19 7 22 58 2 58 -8 0 -18 -7 -21 -15z"/>
<path d="M1142 263 c2 -22 8 -28 28 -28 20 0 26 6 28 28 3 24 0 27 -28 27 -28
0 -31 -3 -28 -27z"/>
<path d="M406 272 c-3 -5 1 -18 9 -28 11 -15 17 -17 32 -8 10 6 18 17 18 25 0
16 -50 25 -59 11z"/>
<path d="M1264 269 c-9 -16 21 -43 40 -36 9 4 16 16 16 27 0 15 -7 20 -24 20
-14 0 -28 -5 -32 -11z"/>
</g>
</svg>
